<?xml version="1.0" encoding="UTF-8" standalone="no"?>
<!-- Created with Inkscape (http://www.inkscape.org/) -->

<svg
   width="133.54062mm"
   height="116.59895mm"
   viewBox="0 0 133.54061 116.59894"
   version="1.1"
   id="svg5"
   inkscape:version="1.1.1 (3bf5ae0d25, 2021-09-20)"
   sodipodi:docname="rysunek.svg"
   xmlns:inkscape="http://www.inkscape.org/namespaces/inkscape"
   xmlns:sodipodi="http://sodipodi.sourceforge.net/DTD/sodipodi-0.dtd"
   xmlns="http://www.w3.org/2000/svg"
   xmlns:svg="http://www.w3.org/2000/svg">
  <sodipodi:namedview
     id="namedview7"
     pagecolor="#ffffff"
     bordercolor="#666666"
     borderopacity="1.0"
     inkscape:pageshadow="2"
     inkscape:pageopacity="0.0"
     inkscape:pagecheckerboard="0"
     inkscape:document-units="mm"
     showgrid="false"
     inkscape:zoom="67.084832"
     inkscape:cx="341.0607"
     inkscape:cy="366.43902"
     inkscape:window-width="1920"
     inkscape:window-height="1017"
     inkscape:window-x="-8"
     inkscape:window-y="-8"
     inkscape:window-maximized="1"
     inkscape:current-layer="layer2"
     fit-margin-top="0"
     fit-margin-left="0"
     fit-margin-right="0"
     fit-margin-bottom="0">
    <inkscape:grid
       type="xygrid"
       id="grid9"
       originx="-120.71087"
       originy="-80.388633" />
  </sodipodi:namedview>
  <defs
     id="defs2">
    <linearGradient
       id="linearGradient11811"
       inkscape:swatch="solid">
      <stop
         style="stop-color:#000000;stop-opacity:1;"
         offset="0"
         id="stop11809" />
    </linearGradient>
  </defs>
  <g
     inkscape:groupmode="layer"
     id="layer10"
     inkscape:label="Warstwa 10"
     transform="translate(-59.311841,-49.221261)">
    <ellipse
       style="fill:#abd400;fill-opacity:1;fill-rule:evenodd;stroke:#000000;stroke-width:0.401731;stroke-opacity:1"
       id="path25186-9"
       cx="166.84746"
       cy="139.58644"
       rx="18.736471"
       ry="16.212305" />
  </g>
  <g
     inkscape:groupmode="layer"
     id="layer9"
     inkscape:label="Warstwa 9"
     transform="translate(-59.311841,-49.221261)">
    <ellipse
       style="display:inline;fill:#abd400;fill-opacity:1;fill-rule:evenodd;stroke:#000000;stroke-width:0.512789;stroke-opacity:1"
       id="path16896-6"
       cx="170.38129"
       cy="150.18794"
       rx="22.214777"
       ry="7.0066695" />
  </g>
  <g
     inkscape:groupmode="layer"
     id="layer7"
     inkscape:label="Warstwa 7"
     transform="translate(-59.311841,-49.221261)">
    <path
       style="fill:#abd400;fill-opacity:1;fill-rule:evenodd;stroke:#000000;stroke-width:0.264583;stroke-opacity:1"
       id="path27425"
       sodipodi:type="arc"
       sodipodi:cx="130.24702"
       sodipodi:cy="117.7524"
       sodipodi:rx="31.299671"
       sodipodi:ry="44.299133"
       sodipodi:start="6.2633197"
       sodipodi:end="6.2476549"
       sodipodi:open="true"
       sodipodi:arc-type="arc"
       d="m 161.54052,116.87243 a 31.299671,44.299133 0 0 1 -30.5492,45.16658 31.299671,44.299133 0 0 1 -32.031961,-43.05977 31.299671,44.299133 0 0 1 30.298321,-45.503834 31.299671,44.299133 0 0 1 32.26926,42.703364" />
  </g>
  <g
     inkscape:groupmode="layer"
     id="layer8"
     inkscape:label="Warstwa 8"
     transform="translate(-59.311841,-49.221261)">
    <path
       style="fill:#f6d6d7;fill-opacity:1;fill-rule:evenodd;stroke:#000000;stroke-opacity:1"
       id="path30043"
       sodipodi:type="arc"
       sodipodi:cx="130.37323"
       sodipodi:cy="146.52791"
       sodipodi:rx="19.057463"
       sodipodi:ry="14.766378"
       sodipodi:start="6.2633235"
       sodipodi:end="6.2476504"
       sodipodi:open="true"
       sodipodi:arc-type="arc"
       d="m 149.42693,146.23464 a 19.057463,14.766378 0 0 1 -18.60055,15.05547 19.057463,14.766378 0 0 1 -19.5033,-14.35325 19.057463,14.766378 0 0 1 18.44772,-15.16795 19.057463,14.766378 0 0 1 19.64786,14.23439" />
  </g>
  <g
     inkscape:groupmode="layer"
     id="layer6"
     inkscape:label="Warstwa 6"
     transform="translate(-59.311841,-49.221261)">
    <ellipse
       style="fill:#abd400;fill-opacity:1;fill-rule:evenodd;stroke:#000000;stroke-width:0.401731;stroke-opacity:1"
       id="path25186"
       cx="88.09343"
       cy="138.32436"
       rx="18.736471"
       ry="16.212305" />
  </g>
  <g
     inkscape:groupmode="layer"
     id="layer5"
     inkscape:label="Warstwa 5"
     transform="translate(-59.311841,-49.221261)" />
  <g
     inkscape:groupmode="layer"
     id="layer4"
     inkscape:label="Warstwa 4"
     transform="translate(-59.311841,-49.221261)">
    <ellipse
       style="display:inline;fill:#abd400;fill-opacity:1;fill-rule:evenodd;stroke:#000000;stroke-width:0.512789;stroke-opacity:1"
       id="path16896"
       cx="81.783012"
       cy="152.96455"
       rx="22.214777"
       ry="7.0066695" />
  </g>
  <g
     inkscape:groupmode="layer"
     id="layer2"
     inkscape:label="Warstwa 2"
     style="display:inline"
     transform="translate(-59.311841,-49.221261)">
    <ellipse
       style="fill:#abd400;fill-opacity:1;fill-rule:evenodd;stroke:#000000;stroke-width:0.264583;stroke-opacity:1"
       id="path6299"
       cx="161.17249"
       cy="162.1758"
       rx="8.0318508"
       ry="31.77043"
       transform="translate(-61.399044,-31.167385)" />
    <ellipse
       style="display:inline;fill:#abd400;fill-opacity:1;fill-rule:evenodd;stroke:#000000;stroke-width:0.264583;stroke-opacity:1"
       id="path6299-6"
       cx="161.29428"
       cy="131.00427"
       rx="8.0318508"
       ry="31.77043" />
    <ellipse
       style="fill:#008000;fill-opacity:1;fill-rule:evenodd;stroke:#000000;stroke-width:0.264583;stroke-opacity:1"
       id="path16835"
       cx="99.641502"
       cy="163.89734"
       rx="1.9877816"
       ry="1.7195889" />
    <ellipse
       style="display:inline;fill:#008000;fill-opacity:1;fill-rule:evenodd;stroke:#000000;stroke-width:0.264583;stroke-opacity:1"
       id="path16835-7"
       cx="96.202316"
       cy="162.36707"
       rx="1.9877816"
       ry="1.7195889" />
    <ellipse
       style="display:inline;fill:#008000;fill-opacity:1;fill-rule:evenodd;stroke:#000000;stroke-width:0.264583;stroke-opacity:1"
       id="path16835-3"
       cx="103.17533"
       cy="162.33551"
       rx="1.9877816"
       ry="1.7195889" />
    <ellipse
       style="display:inline;fill:#008000;fill-opacity:1;fill-rule:evenodd;stroke:#000000;stroke-width:0.264583;stroke-opacity:1"
       id="path16835-1"
       cx="161.6256"
       cy="163.96832"
       rx="1.9877816"
       ry="1.7195889" />
    <ellipse
       style="display:inline;fill:#008000;fill-opacity:1;fill-rule:evenodd;stroke:#000000;stroke-width:0.264583;stroke-opacity:1"
       id="path16835-7-4"
       cx="158.1864"
       cy="162.43805"
       rx="1.9877816"
       ry="1.7195889" />
    <ellipse
       style="display:inline;fill:#008000;fill-opacity:1;fill-rule:evenodd;stroke:#000000;stroke-width:0.264583;stroke-opacity:1"
       id="path16835-3-1"
       cx="165.15942"
       cy="162.40649"
       rx="1.9877816"
       ry="1.7195889" />
    <path
       style="fill:none;stroke:#000000;stroke-width:0.264583px;stroke-linecap:butt;stroke-linejoin:miter;stroke-opacity:1"
       d="m 149.42475,146.87518 c -0.007,-0.1413 -0.0274,-0.2825 -0.0223,-0.4239 0.002,-0.0685 0.0324,-0.13334 0.0446,-0.2008 0.0327,-0.18 -0.0243,-0.36514 -0.0669,-0.53546 -0.007,-0.0262 0.0118,-0.0655 0,-0.0892 -0.0651,-0.13011 -0.13386,-0.15149 -0.13386,-0.31235"
       id="path31005" />
    <path
       style="fill:none;stroke:#000000;stroke-width:0.264583px;stroke-linecap:butt;stroke-linejoin:miter;stroke-opacity:1"
       d="m 149.28262,145.79826 c 0.046,0.0237 0.0979,0.0383 0.13805,0.071 0.0777,0.0633 1e-4,0.31894 0,0.31946 -0.0203,0.10131 -0.0543,0.19939 -0.0789,0.29975 -0.006,0.0233 -0.008,0.0473 -0.0118,0.071 -2.7e-4,0.003 -0.002,0.01 0,0.008 0.0228,-0.0228 0.0142,-0.0629 0.0197,-0.0947 0.0165,-0.0948 0.0314,-0.18985 0.0513,-0.28396 0.0262,-0.12419 0.0571,-0.24734 0.0868,-0.37074 0.01,-0.0402 0.0224,-0.0692 0.0276,-0.0552 0.043,0.11462 0.0392,0.51055 0.0394,0.54822 5.3e-4,0.0632 -0.005,0.12622 -0.008,0.18931 -0.001,0.0237 -0.003,0.0473 -0.004,0.071 -1.3e-4,0.003 -0.003,0.008 0,0.008 0.003,0 0,-0.005 0,-0.008 0,-0.0223 0,-0.0447 0,-0.067 0,-0.29392 -5.3e-4,0.0206 0.004,-0.46145 0.001,-0.11139 -0.007,-0.0897 0.0197,-0.20115 0.002,-0.01 0.004,-0.0216 0.0118,-0.0276 0.004,-0.003 0.003,0.0104 0.004,0.0158 0.002,0.0131 0.003,0.0263 0.004,0.0394 0.006,0.0881 0.0203,0.17613 0.0158,0.26425 -0.009,0.16775 -0.0365,0.33396 -0.0552,0.50089 -0.002,0.0211 -0.008,0.0843 -0.008,0.0631 0,-0.099 0.0359,-0.25863 0.0513,-0.34313 0.025,-0.13734 0.0446,-0.27257 0.0828,-0.40624"
       id="path31017" />
    <rect
       style="fill:#000000;fill-opacity:1;fill-rule:evenodd;stroke:#000000;stroke-width:0.264583;stroke-opacity:1"
       id="rect31043"
       width="0.38651308"
       height="0.54427356"
       x="149.06175"
       y="145.82193" />
    <rect
       style="fill:#000000;fill-opacity:1;fill-rule:evenodd;stroke:#000000;stroke-width:0.264583;stroke-opacity:1"
       id="rect31058"
       width="0.13409638"
       height="1.0727711"
       x="149.58237"
       y="145.4433" />
    <rect
       style="fill:#000000;fill-opacity:1;fill-rule:evenodd;stroke:#000000;stroke-width:0.264583;stroke-opacity:1"
       id="rect31060"
       width="0.1066016"
       height="0.23256378"
       x="149.67297"
       y="145.94827" />
  </g>
  <g
     inkscape:label="Warstwa 1"
     inkscape:groupmode="layer"
     id="layer1"
     transform="translate(-120.71088,-80.388645)"
     style="display:inline">
    <ellipse
       style="fill:#abd400;fill-opacity:1;stroke:#000000;stroke-width:0.264583;stroke-opacity:1"
       id="path26183"
       cx="191.97205"
       cy="115.26092"
       rx="43.193508"
       ry="26.415865" />
    <ellipse
       style="fill:#abd400;fill-opacity:1;stroke-width:0.264583"
       id="path26187"
       cx="191.43658"
       cy="111.33424"
       rx="1.2493989"
       ry="1.0709134" />
    <ellipse
       style="fill:#ffffff;fill-opacity:1;stroke:#000000;stroke-width:0.264583;stroke-opacity:1"
       id="path26211"
       cx="174.41995"
       cy="95.665939"
       rx="10.096668"
       ry="15.145003" />
    <ellipse
       style="fill:#000000;fill-opacity:1;stroke:#000000;stroke-width:0.264583;stroke-opacity:1"
       id="path27177"
       cx="174.79858"
       cy="96.423187"
       rx="4.164876"
       ry="7.5725017" />
    <ellipse
       style="fill:#ffffff;fill-opacity:1;stroke:#000000;stroke-width:0.264583;stroke-opacity:1"
       id="path27245"
       cx="177.44896"
       cy="93.267982"
       rx="1.0096669"
       ry="1.8931254" />
    <ellipse
       style="fill:#ff0000;fill-opacity:1;stroke:#000000;stroke-width:0.264583;stroke-opacity:1"
       id="path27269"
       cx="164.19707"
       cy="121.91727"
       rx="5.9317927"
       ry="4.5435009" />
    <path
       style="fill:none;stroke:#000000;stroke-width:0.264583px;stroke-linecap:butt;stroke-linejoin:miter;stroke-opacity:1"
       d="m 170.12887,121.91728 c 19.30988,16.02846 20.82438,7.32008 20.82438,7.32008"
       id="path28831" />
    <ellipse
       style="fill:#000000;fill-opacity:1;stroke:#000000;stroke-width:0.264583;stroke-opacity:1"
       id="path28855"
       cx="186.40974"
       cy="116.55342"
       rx="1.6407087"
       ry="3.5969386" />
    <ellipse
       style="fill:#abd400;fill-opacity:1;stroke-width:0.264583"
       id="path26187-3"
       cx="-190.46994"
       cy="111.33424"
       rx="1.2493989"
       ry="1.0709134"
       transform="scale(-1,1)" />
    <ellipse
       style="fill:#ffffff;fill-opacity:1;stroke:#000000;stroke-width:0.264583;stroke-opacity:1"
       id="path26211-7"
       cx="-207.48657"
       cy="95.665939"
       rx="10.096668"
       ry="15.145003"
       transform="scale(-1,1)" />
    <ellipse
       style="fill:#000000;fill-opacity:1;stroke:#000000;stroke-width:0.264583;stroke-opacity:1"
       id="path27177-8"
       cx="-207.10794"
       cy="96.423187"
       rx="4.164876"
       ry="7.5725017"
       transform="scale(-1,1)" />
    <ellipse
       style="fill:#ffffff;fill-opacity:1;stroke:#000000;stroke-width:0.264583;stroke-opacity:1"
       id="path27245-6"
       cx="-204.45757"
       cy="93.267982"
       rx="1.0096669"
       ry="1.8931254"
       transform="scale(-1,1)" />
    <ellipse
       style="fill:#ff0000;fill-opacity:1;stroke:#000000;stroke-width:0.264583;stroke-opacity:1"
       id="path27269-5"
       cx="-217.70946"
       cy="121.91727"
       rx="5.9317927"
       ry="4.5435009"
       transform="scale(-1,1)" />
    <path
       style="fill:none;stroke:#000000;stroke-width:0.264583px;stroke-linecap:butt;stroke-linejoin:miter;stroke-opacity:1"
       d="m 211.77763,121.91728 c -19.30988,16.02846 -20.82438,7.32008 -20.82438,7.32008"
       id="path28831-2" />
    <ellipse
       style="fill:#000000;fill-opacity:1;stroke:#000000;stroke-width:0.264583;stroke-opacity:1"
       id="path28855-9"
       cx="-195.49678"
       cy="116.55342"
       rx="1.6407087"
       ry="3.5969386"
       transform="scale(-1,1)" />
    <path
       style="fill:#f9f9f9;fill-rule:evenodd;stroke:#000000;stroke-width:0.954016"
       d=""
       id="path2007"
       transform="scale(0.26458333)" />
  </g>
  <g
     inkscape:groupmode="layer"
     id="layer3"
     inkscape:label="Warstwa 3"
     transform="translate(-59.311841,-49.221261)" />
</svg>
