<?xml version="1.0" encoding="UTF-8" standalone="no"?>
<!-- Created with Inkscape (http://www.inkscape.org/) -->

<svg
   width="152.78798mm"
   height="117.33353mm"
   viewBox="0 0 152.78798 117.33353"
   version="1.1"
   id="svg5"
   inkscape:version="1.1.1 (3bf5ae0d25, 2021-09-20)"
   sodipodi:docname="rysunek_slimak.svg"
   xmlns:inkscape="http://www.inkscape.org/namespaces/inkscape"
   xmlns:sodipodi="http://sodipodi.sourceforge.net/DTD/sodipodi-0.dtd"
   xmlns="http://www.w3.org/2000/svg"
   xmlns:svg="http://www.w3.org/2000/svg">
  <sodipodi:namedview
     id="namedview7"
     pagecolor="#ffffff"
     bordercolor="#666666"
     borderopacity="1.0"
     inkscape:pageshadow="2"
     inkscape:pageopacity="0.0"
     inkscape:pagecheckerboard="0"
     inkscape:document-units="mm"
     showgrid="false"
     inkscape:zoom="0.26205012"
     inkscape:cx="221.3317"
     inkscape:cy="364.4341"
     inkscape:window-width="1920"
     inkscape:window-height="1017"
     inkscape:window-x="-8"
     inkscape:window-y="-8"
     inkscape:window-maximized="1"
     inkscape:current-layer="layer1"
     fit-margin-top="0"
     fit-margin-left="0"
     fit-margin-right="0"
     fit-margin-bottom="0" />
  <defs
     id="defs2" />
  <g
     inkscape:label="Warstwa 1"
     inkscape:groupmode="layer"
     id="layer1"
     transform="translate(-39.625222,-83.074243)">
    <path
       sodipodi:type="spiral"
       style="fill:none;fill-rule:evenodd;stroke:#000000"
       id="path853"
       sodipodi:cx="169.99698"
       sodipodi:cy="356.18414"
       sodipodi:expansion="1"
       sodipodi:revolution="2.79898"
       sodipodi:radius="110.41061"
       sodipodi:argument="-16.688547"
       sodipodi:t0="0.0078815101"
       d="m 169.41743,356.83328 c -4.68266,3.97825 -8.14481,-4.24146 -7.42601,-7.79647 1.94496,-9.61925 14.01638,-11.77519 21.72068,-8.21465 13.43169,6.20745 15.92156,23.71522 9.00329,35.64489 -10.04122,17.31478 -33.52922,20.17151 -49.5691,9.79192 -21.24632,-13.74872 -24.46626,-43.38497 -10.58057,-63.4933 17.40425,-25.20367 53.26093,-28.78436 77.41752,-11.36921 29.17581,21.03366 33.11608,63.14836 12.15784,91.34173 -24.64816,33.15711 -73.04299,37.4564 -105.26593,12.94648 -37.144428,-28.25338 -41.80249,-82.94246 -13.73512,-119.19015 31.85242,-41.13589 92.84534,-46.15261 133.11435,-14.52375 45.13036,35.44716 50.5057,102.75071 15.3124,147.03856 -3.86061,4.85826 -8.13588,9.38598 -12.76142,13.52242"
       transform="matrix(-0.56814679,0,0,0.61467305,195.88402,-74.749586)" />
    <path
       style="fill:none;stroke:#000000;stroke-width:0.580736px;stroke-linecap:butt;stroke-linejoin:miter;stroke-opacity:1"
       d="M 60.207418,197.26223 C 78.70324,181.04065 78.70324,180.2296 78.70324,180.2296"
       id="path970" />
    <path
       style="fill:none;stroke:#000000;stroke-width:0.580736px;stroke-linecap:butt;stroke-linejoin:miter;stroke-opacity:1"
       d="m 147.19022,133.58369 c 0,0 34.05422,-47.862987 26.48666,0.81152 -7.56766,48.67324 -20.81097,22.30851 -21.9461,25.55321 -1.13486,3.24415 -6.05413,40.96757 -15.51364,40.15622 -9.45952,-0.8115 -76.009722,-2.84278 -76.009722,-2.84278 v 0"
       id="path1146" />
    <path
       style="fill:none;stroke:#000000;stroke-width:0.580736px;stroke-linecap:butt;stroke-linejoin:miter;stroke-opacity:1"
       d="m 168.75795,112.89731 c -0.75686,-2.83839 2.27025,-19.063812 -3.40518,-24.337212 -5.67569,-5.273128 -5.67569,-5.273128 -5.67569,-5.273128"
       id="path1150" />
    <path
       style="fill:none;stroke:#000000;stroke-width:0.580736px;stroke-linecap:butt;stroke-linejoin:miter;stroke-opacity:1"
       d="m 132.05497,117.3591 c 0.63063,-0.13732 1.26131,-0.24703 1.89195,-0.41536"
       id="path1306" />
    <path
       style="fill:none;stroke:#000000;stroke-width:0.580736px;stroke-linecap:butt;stroke-linejoin:miter;stroke-opacity:1"
       d="m 172.54174,113.2016 19.67577,-17.948912 v 0"
       id="path1374" />
    <ellipse
       style="fill:#ffffff;fill-rule:evenodd;stroke:none;stroke-width:0.580736"
       id="path1807"
       cx="133.8291"
       cy="118.18766"
       rx="2.4748912"
       ry="4.0870976" />
    <ellipse
       style="fill:#ffffff;fill-rule:evenodd;stroke:#000000;stroke-width:0.580736;stroke-opacity:1"
       id="path1897"
       cx="167.74176"
       cy="123.5655"
       rx="4.4146695"
       ry="5.0192437" />
    <ellipse
       style="fill:#000000;fill-rule:evenodd;stroke:#000000;stroke-width:0.580736;stroke-opacity:1"
       id="path1921"
       cx="170.38971"
       cy="124.91343"
       rx="1.3243334"
       ry="2.1041338" />
    <path
       style="fill:#d3a890;fill-opacity:1;fill-rule:evenodd;stroke:#000000;stroke-width:0.277019;stroke-opacity:1"
       d="m 131.47747,199.42094 c -4.379,-0.2882 -28.88685,-1.22066 -52.405217,-1.99319 -9.477776,-0.28821 -17.278558,-0.61575 -17.335057,-0.68162 -0.05889,-0.0549 1.557533,-1.57536 3.586941,-3.37232 2.935809,-2.5953 8.64512,-7.77108 11.906081,-10.79776 0.41138,-0.41537 0.6512,-0.2882 2.408243,0.92377 4.405348,3.04507 9.803692,5.35034 15.240882,6.51218 3.9278,0.84171 11.832917,0.92653 15.605877,0.16469 12.49629,-2.49906 22.75274,-9.83914 29.68439,-21.23873 5.52554,-9.08717 8.57265,-21.95654 7.70569,-32.54406 l -0.21542,-2.65303 1.43596,-1.93547 c 6.01777,-8.10987 13.36929,-15.51473 17.61253,-17.74004 2.08945,-1.09697 4.24168,-1.26192 5.25741,-0.41536 3.16818,2.68047 3.13692,12.18255 -0.0923,28.25207 -2.85782,14.21739 -6.73818,21.65856 -11.35207,21.76854 -1.54752,0.0549 -3.26348,-0.76944 -5.77121,-2.71076 -2.13254,-1.64683 -2.9825,-2.01526 -3.32373,-1.42414 -0.0897,0.16467 -0.80866,3.54185 -1.59805,7.52891 -1.84298,9.30821 -2.81653,13.40275 -4.45123,18.71843 -2.1292,6.92352 -4.4032,11.33811 -6.66843,12.94531 -1.2872,0.91033 -2.22434,1.00072 -7.22829,0.67062 z m 39.1626,-71.49691 c 1.21155,-0.9925 1.8222,-2.46064 1.8222,-4.3887 0,-1.98497 -0.67194,-3.43436 -2.09074,-4.508 -1.52546,-1.1547 -3.73402,-1.1547 -5.25953,0 -2.75171,2.0867 -2.88717,6.75472 -0.25852,8.90383 1.65652,1.35268 4.12429,1.34993 5.7864,-0.008 z"
       id="path4249" />
    <path
       style="fill:#c5c5c5;fill-opacity:1;fill-rule:evenodd;stroke:#000000;stroke-width:0.277019;stroke-opacity:1"
       d="m 130.41781,199.13283 c -5.07772,-0.28818 -21.72007,-0.96768 -47.205875,-1.85851 -11.321277,-0.41537 -20.62213,-0.7612 -20.668576,-0.81336 -0.04609,-0.0549 1.628571,-1.63036 3.722809,-3.50864 2.094067,-1.87776 5.462,-4.93471 7.484553,-6.78803 2.022511,-1.85296 3.806582,-3.37223 3.964794,-3.37223 0.153875,0 1.286433,0.64592 2.507736,1.43237 4.069263,2.62833 9.324302,4.86462 13.814682,5.88703 2.72815,0.62121 8.190017,0.90757 12.701287,0.66512 14.78033,-0.79414 29.02061,-11.15795 36.08027,-26.26162 3.93602,-8.42194 6.08411,-19.78465 5.32839,-28.18702 l -0.21542,-2.43858 2.14151,-2.86758 c 2.66405,-3.57067 10.61549,-12.13965 13.12371,-14.14585 2.45107,-1.96017 4.92057,-3.26033 6.50682,-3.42584 1.09128,-0.13717 1.3993,-0.0183 2.11894,0.62397 2.69649,2.43317 2.88832,10.20042 0.5796,23.47363 -2.04303,11.74605 -4.69082,19.67167 -7.78335,23.29934 -1.51392,1.77601 -2.67678,2.43584 -4.27174,2.42761 -1.42469,-0.006 -2.77794,-0.64592 -5.41969,-2.55679 -1.11385,-0.80512 -2.37951,-1.54234 -2.81266,-1.6331 -0.9433,-0.16468 -0.77503,-0.73924 -2.70769,8.67812 -1.79604,8.75342 -3.02804,13.82636 -4.44944,18.32092 -2.06815,6.54026 -4.71183,11.47496 -6.7539,12.60706 -1.04305,0.58005 -3.34995,0.70356 -7.78226,0.44006 z m 39.24633,-70.28009 c 3.48236,-1.4159 4.08731,-7.38838 1.00408,-9.90894 -0.89712,-0.73101 -1.22822,-0.82707 -2.92614,-0.82707 -1.69807,0 -2.02918,0.0823 -2.92616,0.82707 -0.55654,0.45379 -1.23617,1.36092 -1.51188,2.00967 -0.55577,1.31142 -0.66578,3.71981 -0.22822,4.96253 0.37442,1.06668 1.52805,2.36163 2.52467,2.8383 0.97509,0.46751 3.03616,0.51692 4.06264,0.0823 z"
       id="path18392" />
    <path
       style="fill:#e0aa88;fill-opacity:1;fill-rule:evenodd;stroke:#000000;stroke-width:0.279489;stroke-opacity:1"
       d="m 57.417742,194.35111 c -9.120381,-10.12019 -14.930903,-23.12454 -16.674406,-37.3192 -0.496832,-4.0454 -0.420973,-13.02824 0.144916,-17.17594 3.867314,-28.34712 23.130457,-49.479192 48.301451,-52.988462 9.95309,-1.386926 20.670007,0.44401 29.862267,5.08618 12.22696,6.1827 21.83292,17.471122 26.19715,30.786732 5.40001,16.4753 2.82832,35.46317 -6.64251,49.04951 -2.87001,4.11639 -7.66336,8.93929 -11.57226,11.64271 -14.19616,9.81753 -32.130407,9.88103 -46.482155,0.16616 -1.800627,-1.22327 -1.896371,-1.35637 -1.366194,-1.92509 0.521112,-0.5603 -0.32704,-1.0152 -0.882075,-0.47169 -0.373872,0.37477 -0.658542,0.22154 -2.408434,-1.45624 -14.674122,-13.84353 -17.373705,-37.26124 -6.254193,-54.25218 1.714994,-2.6186 5.718163,-6.84898 8.130154,-8.58789 6.235101,-4.49611 12.43987,-6.414 19.68743,-6.08584 11.292937,0.51045 20.854117,7.02702 25.528067,17.39876 1.74914,3.88227 2.32719,6.50716 2.48865,11.30985 0.21734,6.49332 -0.97936,11.40602 -3.96812,16.26946 -2.84118,4.62344 -6.71604,7.88828 -11.55167,9.73425 -2.23766,0.85755 -2.56031,0.89908 -6.40538,0.89908 -3.847827,0 -4.166487,-0.0277 -6.413967,-0.90184 -3.15232,-1.20658 -5.04432,-2.45484 -7.24051,-4.7907 -5.357371,-5.69808 -6.325423,-14.46014 -2.305701,-20.87075 3.196711,-5.09668 9.356571,-6.72104 13.685438,-3.611 2.98332,2.14137 3.606,5.64778 1.43579,8.07631 -0.82127,0.92373 -1.58638,1.0596 -2.25033,0.41908 -0.28433,-0.25016 -0.565377,-0.2917 -0.831097,-0.16616 -0.70694,0.47169 0.597747,1.56445 1.821597,1.52836 1.91604,-0.0553 3.77114,-3.18519 3.40235,-5.73547 -0.35839,-2.46315 -1.91554,-4.54969 -4.21421,-5.63763 -5.013017,-2.37434 -10.652927,-0.4883 -13.820793,4.62602 -1.553783,2.51032 -2.316576,5.03596 -2.496921,8.27827 -0.419429,7.53851 3.360292,14.16661 10.050277,17.6251 3.09588,1.59767 5.53405,2.17468 9.255347,2.17468 3.65118,0 6.29033,-0.66277 9.64049,-2.43268 4.49311,-2.37166 8.00835,-6.19821 10.38965,-11.31178 3.88599,-8.3451 3.78475,-18.29028 -0.27269,-26.74606 -3.886,-8.10021 -10.46614,-13.5797 -19.4107,-16.16459 -2.34867,-0.67663 -3.06394,-0.74585 -7.848037,-0.76248 -4.61104,-0.009 -5.56337,0.0831 -7.680163,0.63785 -13.600383,3.69482 -23.31856,15.35025 -25.983084,31.169 -0.60214,3.57333 -0.582422,10.39617 0.03874,14.17941 1.475902,8.97512 4.97265,16.06252 11.238189,22.77914 l 3.433116,3.68205 -4.357907,4.01181 c -4.920287,4.52697 -12.251407,11.05684 -12.413304,11.05684 -0.05941,0 -1.402161,-1.43687 -2.985265,-3.1935 z"
       id="path33209" />
    <path
       style="fill:none;stroke:#000000;stroke-width:0.580736px;stroke-linecap:butt;stroke-linejoin:miter;stroke-opacity:1"
       d="m 169.98767,147.88132 c -20.05421,3.74863 -12.67579,-9.73464 -12.67579,-9.73464 l -0.0923,0.50593"
       id="path36799" />
    <path
       style="fill:none;stroke:#000000;stroke-width:0.580736px;stroke-linecap:butt;stroke-linejoin:miter;stroke-opacity:1"
       d="m 169.98767,147.88132 c -0.0614,0.008 -0.12824,0.009 -0.1898,0.0183 -0.14364,0.0183 0.11289,-0.0183 0.12056,-0.0183 0.1308,0 0.18204,-0.0823 0.33184,-0.0823 0.0742,0 -0.0384,0.006 0.0461,-0.0183 0.25391,-0.0823 -0.0461,-0.0823 0.023,-0.16469 0.0307,-0.0183 0.12825,-0.009 0.16669,-0.0183 0.0665,-0.009 0.0205,-0.0549 0.0923,-0.0549"
       id="path36834" />
  </g>
</svg>
